# xmcd
#
# Track frame offsets: 
#        150
#        13442
#        23115
#        35909
#        45681
#        58241
#        68181
#        80693
#        89641
#        102432
#        113812
#        126795
#        138841
#        149418
#        162221
#        172074
#        183487
#        194791
#        207256
#        218178
#        230207
#        242712
#        256554
#        269850
#        282777
#        292654
#        305192
#        317722
#
# Disc length: 4497 seconds
#
# Revision: 1
# Processed by: cddbd v1.5.1PL0 Copyright (c) Steve Scherf et al.
# Submitted via: ExactAudioCopy v0.90b4
#
DISCID=c1118f1c
DTITLE=Magic Sam - With a Feeling! The Complete Cobra, Chief and Crash R
DTITLE=ecordings 1957-1966
DYEAR=2001
DGENRE=Blues
TTITLE0=All  Your Love
TTITLE1=Love Me With a Feeling
TTITLE2=Everything Gonna Be Alright
TTITLE3=Look Whatcha Done
TTITLE4=All Night Long
TTITLE5=All My Whole Life
TTITLE6=Easy Baby
TTITLE7=21 Days in Jail
TTITLE8=Love Me This Way
TTITLE9=Magic Rocker
TTITLE10=My Love Is Your Love
TTITLE11=Mr. Charlie
TTITLE12=Square Dance Rock-Part 1
TTITLE13=Square Dance Rock-Part 2
TTITLE14=Every Night About This Time
TTITLE15=Do the Camel Walk
TTITLE16=Blue Light Boogie
TTITLE17=You Don't Have to Work
TTITLE18=Out of Bad Luck
TTITLE19=She Belongs to Me
TTITLE20=Roll Your Moneymaker (Shakey Jake)
TTITLE21=Call Me If You Need Me (Shakey Jake)
TTITLE22=Respect Me Baby (Shakey Joke (sic))
TTITLE23=A Hard Road (Shakey Joke (sic))
TTITLE24=Love Me With a Feeling (Take 1)
TTITLE25=Everything Gonna Be Alright (Take Unknown)
TTITLE26=21 Days in Jail (Take 2)
TTITLE27=Easy Baby (Two 'Tests' and Take 5)
EXTD=
EXTT0=
EXTT1=
EXTT2=
EXTT3=
EXTT4=
EXTT5=
EXTT6=
EXTT7=
EXTT8=
EXTT9=
EXTT10=
EXTT11=
EXTT12=
EXTT13=
EXTT14=
EXTT15=
EXTT16=
EXTT17=
EXTT18=
EXTT19=
EXTT20=
EXTT21=
EXTT22=
EXTT23=
EXTT24=
EXTT25=
EXTT26=
EXTT27=
PLAYORDER=
